<svg id="Layer_1" data-name="Layer 1" xmlns="http://www.w3.org/2000/svg" viewBox="0 0 396 80.33"><defs><style>.cls-1{fill:#fff;}.cls-2{fill:#231f20;}</style></defs><title>Artboard 2</title><circle class="cls-1" cx="40.17" cy="40.17" r="40.17"/><path class="cls-2" d="M48.18,23.22c0-3.21.12-3.85-1.55-3.85l-.76-.06c-.18-.12-.12-.67.06-.76h7.73c.18.09.24.64.06.76l-.73.06c-1.8.15-1.51.59-1.51,3.85V33.86c0,2.31,0,2.85.57,3.43.34.34.63.57,3,.57,2.6,0,3.24-.12,3.73-.4a6.52,6.52,0,0,0,2-3c.18-.15.76,0,.76.18a24.51,24.51,0,0,1-1.28,4.28H45.92a.59.59,0,0,1-.06-.76l.92-.09c1.48-.12,1.4-.61,1.4-3.82Z"/><path class="cls-2" d="M51.26,50.07c0,.83,0,.83.72.83h2.08a11.52,11.52,0,0,0,2.6-.18c.34-.12.58-.28.76-1.07l.28-1.22a.64.64,0,0,1,.79,0c0,.73-.12,2-.12,3.09s.12,2.26.12,3c-.12.18-.58.18-.79,0l-.31-1.19a1.47,1.47,0,0,0-1-1.16A10.39,10.39,0,0,0,54.05,52H52c-.72,0-.72,0-.72.83V57c0,3.21-.23,3.67,1.58,3.82l1,.09c.18.12.12.67-.06.76H45.92a.59.59,0,0,1-.06-.76l.76-.09c1.55-.15,1.5-.8,1.5-4v-11c0-3.21.05-3.42-1.5-3.66l-.49-.06c-.18-.12-.12-.67.06-.76h13.3c0,1.41,0,2.87.09,4a.55.55,0,0,1-.73.09c-.24-1.38-.61-2.51-2.14-2.9a13.06,13.06,0,0,0-3-.18H51.88c-.66,0-.63.06-.63,1.22Z"/><path class="cls-2" d="M42.53,19.3a3.82,3.82,0,0,0-2.63-.68l-6.81,0H22.65c-.39.19-.52,1.36-.13,1.62l1,.13a6.2,6.2,0,0,1,1.74.26c1.75.73,1.54,2.48,1.54,7.73V51.78c0,5.81-.16,7.49-1.61,7.9a4.35,4.35,0,0,1-1,.22l-1.62.19a1.26,1.26,0,0,0,.13,1.62H36.38c.39-.19.52-1.36.13-1.62L35,59.93a4.48,4.48,0,0,1-1.16-.25c-1.49-.47-1.48-1.63-1.6-4.38,0-.55,0-1.18,0-1.87,0-1.26.27-1.45,1.66-1.47,1.63,0,2.78,0,3.51.08,1.38.08,4.78-.07,5.43-.9s.59-2.36.59-5.4,0-18.23,0-20.75S43.55,20.54,42.53,19.3Zm-4.8,25.62c0,2.32,0,3.86-.63,4.52-.33.33-1.28.24-2.41.24h-.36c-1.95,0-2.14,0-2.14-1.75V23.26c0-2.47,0-2.6,1.95-2.6a16.55,16.55,0,0,1,2.92.14c.64.21.69.85.69,2.58C37.72,30.19,37.72,44.27,37.72,44.92Z"/><path class="cls-1" d="M100.69,20c0-1.07,0-1.1-1-1.1H97.42c-1.48,0-3.37.07-4.23.86a6.28,6.28,0,0,0-1.55,2.37.66.66,0,0,1-.89-.24,36.23,36.23,0,0,0,1.31-5.12.86.86,0,0,1,.65,0c.21,1.1,1.34,1.07,2.92,1.07H109.9c1.89,0,2.44-.21,2.54-.48v-.48l2.3-.93a.38.38,0,0,1,.34.21c0,1-.1,2.75-.1,4.26v7.22c0,.31,0,.58.14.65a7.81,7.81,0,0,1,4.64-1.79c3.27,0,4.44,2,4.44,4.44v5.74c0,2.48.07,2.85,1.31,3l.93.1a.6.6,0,0,1-.07.86c-1.24-.07-2.24-.1-3.44-.1s-2.27,0-3.2.1a.6.6,0,0,1-.07-.86l.69-.1c1.27-.21,1.31-.52,1.31-3V31.72c0-2.2-1.07-3.68-3.27-3.68a4.12,4.12,0,0,0-2.68.93c-.62.52-.72.69-.72,1.89v5.78c0,2.48.07,2.82,1.31,3l.72.1c.24.14.17.76-.07.86-1-.07-2-.1-3.23-.1s-2.27,0-3.37.1a.6.6,0,0,1-.07-.86l.86-.1c1.27-.14,1.31-.52,1.31-3V21.26c0-2.17-.79-2.41-4.81-2.41H104.5c-1,0-1,0-1,1.17v15.3c0,3.61.07,4.13,2.06,4.3l1.1.1c.21.14.14.76-.07.86-2-.07-3.13-.1-4.51-.1s-2.58,0-4.78.1a.6.6,0,0,1,0-.86l1.24-.1c2-.17,2.13-.69,2.13-4.3Z"/><path class="cls-1" d="M131.61,31.68c-.89,0-.93.07-.93.93,0,3.47,2,6.43,5.71,6.43a3.71,3.71,0,0,0,3.16-1.69.46.46,0,0,1,.62.41,6,6,0,0,1-5.4,3.2,6.16,6.16,0,0,1-5-2.27,7.3,7.3,0,0,1-1.44-4.47c0-4.23,2.79-7.77,6.91-7.77,3,0,4.88,2,4.88,4.09a2.13,2.13,0,0,1-.14.89c-.1.21-.58.24-2,.24Zm2.13-1c2.54,0,3.3-.14,3.58-.34.1-.07.21-.21.21-.65,0-1-.65-2.17-2.65-2.17s-3.78,1.86-3.82,3c0,.07,0,.17.24.17Z"/><path class="cls-1" d="M156.58,35.33c0,3.61.07,4.06,2.27,4.3l.93.1a.67.67,0,0,1-.07.86c-2-.07-3.1-.1-4.47-.1s-2.68,0-4.2.1a.67.67,0,0,1-.07-.86l.72-.1c2-.27,2.06-.69,2.06-4.3V22.64c0-2.92-.07-3.51-1.62-3.68l-1.24-.14A.57.57,0,0,1,151,18a54.23,54.23,0,0,1,6.81-.27c2.85,0,5,.38,6.6,1.38a5.94,5.94,0,0,1,2.75,5.16,5.83,5.83,0,0,1-3.44,5.47,11.61,11.61,0,0,1-4.75,1c-.24-.1-.24-.62,0-.69,3.71-.69,5.06-2.79,5.06-5.78,0-3.34-2-5.5-5.54-5.5-1.82,0-1.86.14-1.86,1.24Z"/><path class="cls-1" d="M170.86,31.68c-.89,0-.93.07-.93.93,0,3.47,2,6.43,5.71,6.43a3.71,3.71,0,0,0,3.16-1.69.46.46,0,0,1,.62.41A6,6,0,0,1,174,41a6.16,6.16,0,0,1-5-2.27,7.3,7.3,0,0,1-1.44-4.47c0-4.23,2.79-7.77,6.91-7.77,3,0,4.88,2,4.88,4.09a2.13,2.13,0,0,1-.14.89c-.1.21-.58.24-2,.24Zm2.13-1c2.54,0,3.3-.14,3.58-.34.1-.07.21-.21.21-.65,0-1-.65-2.17-2.65-2.17s-3.78,1.86-3.82,3c0,.07,0,.17.24.17Z"/><path class="cls-1" d="M186.2,28.38c-.58,0-.62.1-.62.83v6.43c0,2,.24,3.82,2.51,3.82a2.63,2.63,0,0,0,.93-.17c.31-.1.76-.48.86-.48.27,0,.41.38.34.58A4.76,4.76,0,0,1,186.61,41c-3,0-3.58-1.65-3.58-3.71V29.38c0-.93,0-1-.72-1h-1a.57.57,0,0,1-.1-.72,6.84,6.84,0,0,0,2.2-1.07,8.51,8.51,0,0,0,1.44-2c.17-.07.58-.07.72.17v1.55c0,.62,0,.65.62.65H190a1.1,1.1,0,0,1,0,1.44Z"/><path class="cls-1" d="M195,31.68c-.89,0-.93.07-.93.93,0,3.47,2,6.43,5.71,6.43A3.71,3.71,0,0,0,203,37.36a.45.45,0,0,1,.62.41,6,6,0,0,1-5.4,3.2,6.16,6.16,0,0,1-5-2.27,7.3,7.3,0,0,1-1.44-4.47c0-4.23,2.79-7.77,6.91-7.77,3,0,4.88,2,4.88,4.09a2.13,2.13,0,0,1-.14.89c-.1.21-.58.24-2,.24Zm2.13-1c2.54,0,3.3-.14,3.58-.34.1-.07.21-.21.21-.65,0-1-.65-2.17-2.65-2.17s-3.78,1.86-3.82,3c0,.07,0,.17.24.17Z"/><path class="cls-1" d="M207.56,30.62c0-1.34,0-1.51-.93-2.13l-.31-.21a.47.47,0,0,1,0-.62A26.68,26.68,0,0,0,209.83,26c.17,0,.28.1.28.24v2q0,.26.1.31c1.2-1,2.51-2.06,3.78-2.06a1.42,1.42,0,0,1,1.55,1.38,1.53,1.53,0,0,1-1.48,1.58,1.32,1.32,0,0,1-.76-.24,2.82,2.82,0,0,0-1.51-.55,1.53,1.53,0,0,0-1.24.69A5.23,5.23,0,0,0,210.1,32v4.68c0,2.48.07,2.89,1.38,3l1.24.1a.6.6,0,0,1-.07.86c-1.62-.07-2.61-.1-3.82-.1s-2.27,0-3.17.1a.6.6,0,0,1-.07-.86l.65-.1c1.27-.21,1.31-.52,1.31-3Z"/><path class="cls-1" d="M225,27.07a8,8,0,0,1,.55,2.79.6.6,0,0,1-.83.1c-.58-1.51-1.62-2.51-3-2.51a2,2,0,0,0-2.2,2.1c0,1.41,1.44,2.17,2.65,2.85,1.82,1,3.51,2.2,3.51,4.64,0,2.61-2.41,3.92-5,3.92a5.72,5.72,0,0,1-3.68-1,10.21,10.21,0,0,1-.41-3.47.58.58,0,0,1,.79,0c.58,1.89,1.68,3.54,3.65,3.54a2.12,2.12,0,0,0,2.3-2.2c0-1.58-1.37-2.44-2.65-3.16-2-1.13-3.41-2.34-3.41-4.23,0-2.51,2.06-3.92,4.68-3.92A6.09,6.09,0,0,1,225,27.07Z"/><path class="cls-1" d="M231.19,31.68c-.89,0-.93.07-.93.93,0,3.47,2,6.43,5.71,6.43a3.71,3.71,0,0,0,3.16-1.69.45.45,0,0,1,.62.41,6,6,0,0,1-5.4,3.2,6.16,6.16,0,0,1-5-2.27,7.3,7.3,0,0,1-1.44-4.47c0-4.23,2.79-7.77,6.91-7.77,3,0,4.88,2,4.88,4.09a2.13,2.13,0,0,1-.14.89c-.1.21-.58.24-2,.24Zm2.13-1c2.54,0,3.3-.14,3.58-.34.1-.07.21-.21.21-.65,0-1-.65-2.17-2.65-2.17s-3.78,1.86-3.82,3c0,.07,0,.17.24.17Z"/><path class="cls-1" d="M243.71,30.62c0-1.34,0-1.51-.93-2.13l-.31-.21a.47.47,0,0,1,0-.62A18.77,18.77,0,0,0,245.94,26a.4.4,0,0,1,.38.24c-.07.79-.07,1.31-.07,1.62a.36.36,0,0,0,.38.38,9.42,9.42,0,0,1,4.82-1.75c2.85,0,4,2,4,4.26v5.92c0,2.48.07,2.82,1.31,3l.76.1a.6.6,0,0,1-.07.86c-1-.07-2-.1-3.23-.1s-2.27,0-3.2.1a.6.6,0,0,1-.07-.86l.65-.1c1.27-.21,1.31-.52,1.31-3V31.51c0-2-.89-3.41-3.23-3.41a3.75,3.75,0,0,0-2.92,1.2,2.9,2.9,0,0,0-.52,2.06v5.26c0,2.48.07,2.79,1.31,3l.62.1a.6.6,0,0,1-.07.86c-.93-.07-1.93-.1-3.13-.1s-2.27,0-3.23.1a.6.6,0,0,1-.07-.86l.72-.1c1.27-.17,1.31-.52,1.31-3Z"/><path class="cls-1" d="M271.4,22.95c0-3.61-.07-4.16-2.24-4.33l-.86-.07c-.21-.14-.14-.76.07-.86,1.93.07,3.09.1,4.47.1s2.51,0,4.23-.1c.21.1.28.72.07.86l-.83.07c-2,.17-2.1.72-2.1,4.33v12c0,2.17.1,3.06.72,3.71.38.38,1,.79,3.75.79,2.92,0,3.65-.14,4.2-.45a7.34,7.34,0,0,0,2.27-3.41c.21-.17.86,0,.86.21a27.58,27.58,0,0,1-1.44,4.82c-1.75-.07-5-.1-8.56-.1h-3.16c-1.44,0-2.54,0-4.47.1a.67.67,0,0,1-.07-.86l1-.1c2-.21,2.06-.69,2.06-4.3Z"/><path class="cls-1" d="M294.17,33.37c.52-.17.58-.48.58-1l0-1.58c0-1.27-.38-3-2.51-3-1,0-2.13.48-2.2,1.55,0,.55-.07,1-.34,1.17a3.71,3.71,0,0,1-2,.65.44.44,0,0,1-.48-.48c0-1.79,3.89-4.23,6.4-4.23s3.68,1.44,3.58,4l-.21,6c-.07,1.58.24,3,1.58,3a2,2,0,0,0,.86-.21c.17-.1.34-.24.45-.24s.24.21.24.45A3.61,3.61,0,0,1,297.3,41a2.74,2.74,0,0,1-2.24-1.07c-.14-.21-.34-.48-.55-.48a5.3,5.3,0,0,0-1.34.69,5.09,5.09,0,0,1-2.48.86,3.56,3.56,0,0,1-2.41-.79,3.22,3.22,0,0,1-1.07-2.41c0-1.34.65-2.13,2.85-2.92ZM292,39.42a3.89,3.89,0,0,0,2.1-.86c.41-.41.41-.89.45-1.62l.07-2c0-.38-.14-.45-.34-.45a6.48,6.48,0,0,0-1.41.34c-2,.69-3,1.2-3,2.54A2.07,2.07,0,0,0,292,39.42Z"/><path class="cls-1" d="M302.49,30.27c-.79-1.93-1.2-2.27-2.06-2.48l-.55-.14c-.17-.17-.21-.69.1-.83,1.07.07,2,.1,3.06.1s2.06,0,3-.1a.54.54,0,0,1,.07.83l-.79.14c-.48.07-.76.27-.76.48a7.06,7.06,0,0,0,.55,1.79l2.13,5.26c.31.79.62,1.41.62,1.48a7.78,7.78,0,0,0,.79-1.65L310.33,31c.45-1.1.48-1.55.31-2a1.93,1.93,0,0,0-1.58-1.2l-.55-.14a.54.54,0,0,1,.1-.83c.86.07,2,.1,2.85.1,1.07,0,2.1,0,3.27-.1.31.1.31.65.1.83l-.72.14c-1.37.27-1.31.38-.89,1.58s2.24,5.5,2.61,6.43a3.6,3.6,0,0,0,.45,1,5.42,5.42,0,0,0,.48-1c.45-1,1.82-4.64,2.34-6.09a4.91,4.91,0,0,0,.34-1.48c0-.21-.21-.38-.62-.45l-.86-.14a.54.54,0,0,1,0-.83c1,.07,1.86.1,2.72.1.65,0,1.48,0,2.24-.1a.57.57,0,0,1,.1.83l-.69.14c-.83.17-1.13.65-1.86,2.17-.93,1.93-2.58,6.05-3.23,7.81-.48,1.24-.89,2.24-1.17,3.13a.7.7,0,0,1-.45.14.52.52,0,0,1-.38-.14c-.21-.62-.83-2.41-1.41-3.78l-1.65-4a17.35,17.35,0,0,0-.79-1.75,16.37,16.37,0,0,0-.76,1.69l-1.79,4.3c-.62,1.48-1.1,2.72-1.38,3.51a.55.55,0,0,1-.41.14.6.6,0,0,1-.41-.14c-.21-.72-.76-2.13-1-2.85Z"/><path class="cls-1" d="M338.44,27.49c0,.93.1.93,1.13.93h2.34a13,13,0,0,0,2.92-.21c.38-.14.65-.31.86-1.2l.31-1.38a.72.72,0,0,1,.89,0c0,.83-.14,2.2-.14,3.47s.14,2.55.14,3.34c-.14.21-.65.21-.89,0l-.34-1.34a1.65,1.65,0,0,0-1.1-1.31,11.69,11.69,0,0,0-2.65-.17h-2.34c-1,0-1.13,0-1.13.93v4.78c0,3.61.07,4.13,2.1,4.3l1.17.1c.21.14.14.76-.07.86-2-.07-3.2-.1-4.57-.1s-2.68,0-4.3.1a.67.67,0,0,1-.07-.86l.86-.1c2-.24,2.06-.69,2.06-4.3V22.95c0-3.61-.07-4.09-2.06-4.33l-.55-.07c-.21-.14-.14-.76.07-.86,1.44.07,2.61.1,4,.1h6.33c2.2,0,4.2,0,4.64-.1,0,1.58,0,3.23.1,4.54a.62.62,0,0,1-.83.1c-.27-1.55-.69-2.82-2.41-3.27a14.72,14.72,0,0,0-3.34-.21h-2.1c-1,0-1,.07-1,1.38Z"/><path class="cls-1" d="M351.92,30.62c0-1.34,0-1.51-.93-2.13l-.31-.21a.47.47,0,0,1,0-.62A23.63,23.63,0,0,0,354.26,26a.32.32,0,0,1,.34.21c-.07,1.2-.14,2.85-.14,4.26v6.19c0,2.48.07,2.82,1.31,3l.72.1a.6.6,0,0,1-.07.86c-1-.07-2-.1-3.23-.1s-2.27,0-3.23.1a.6.6,0,0,1-.07-.86l.72-.1c1.27-.17,1.31-.52,1.31-3Zm2.86-9.8a1.79,1.79,0,0,1-3.58.07A1.79,1.79,0,0,1,353.06,19,1.72,1.72,0,0,1,354.78,20.81Z"/><path class="cls-1" d="M360.76,30.62c0-1.34,0-1.51-.93-2.13l-.31-.21a.47.47,0,0,1,0-.62A26.68,26.68,0,0,0,363,26c.17,0,.28.1.28.24v2q0,.26.1.31c1.2-1,2.51-2.06,3.78-2.06a1.42,1.42,0,0,1,1.55,1.38,1.53,1.53,0,0,1-1.48,1.58,1.32,1.32,0,0,1-.76-.24,2.82,2.82,0,0,0-1.51-.55,1.53,1.53,0,0,0-1.24.69,5.23,5.23,0,0,0-.45,2.65v4.68c0,2.48.07,2.89,1.38,3l1.24.1a.6.6,0,0,1-.07.86c-1.62-.07-2.61-.1-3.82-.1s-2.27,0-3.17.1a.6.6,0,0,1-.07-.86l.65-.1c1.27-.21,1.31-.52,1.31-3Z"/><path class="cls-1" d="M390.41,31.65c0-2.34-1-3.54-3.2-3.54a3.71,3.71,0,0,0-2.85,1.2c-.41.52-.52.86-.52,2.06v5.26c0,2.48.07,2.82,1.31,3l.72.1a.6.6,0,0,1-.07.86c-1-.07-2-.1-3.23-.1s-2.17,0-3.13.1a.6.6,0,0,1-.07-.86l.62-.1c1.27-.21,1.31-.52,1.31-3v-5c0-2.3-1-3.54-3.16-3.54a3.68,3.68,0,0,0-2.89,1.24,2.68,2.68,0,0,0-.52,2v5.33c0,2.48.07,2.79,1.31,3l.62.1a.6.6,0,0,1-.07.86c-.93-.07-1.93-.1-3.13-.1s-2.27,0-3.34.1a.6.6,0,0,1-.07-.86l.83-.1c1.27-.17,1.31-.52,1.31-3v-6c0-1.34,0-1.51-.93-2.13l-.31-.21a.47.47,0,0,1,0-.62A18.77,18.77,0,0,0,374.42,26a.4.4,0,0,1,.38.24c-.07.79-.07,1.31-.07,1.62a.36.36,0,0,0,.38.38,8.26,8.26,0,0,1,4.57-1.75,3.93,3.93,0,0,1,3.65,2,1.08,1.08,0,0,0,.86-.27,8.62,8.62,0,0,1,4.68-1.75c2.75,0,4.09,1.89,4.09,4.26v5.92c0,2.48.07,2.82,1.31,3l.83.1a.6.6,0,0,1-.07.86c-1.14-.07-2.13-.1-3.34-.1s-2.17,0-3.13.1a.6.6,0,0,1-.07-.86l.62-.1c1.27-.21,1.31-.52,1.31-3Z"/><path class="cls-1" d="M93.75,50.75a8.23,8.23,0,0,1,5.16-1.62,14.76,14.76,0,0,1,3.38.46,1.45,1.45,0,0,0,.54.08c0,.44.11,1.64.27,2.81a.4.4,0,0,1-.52,0c-.29-1.3-1.15-2.79-3.92-2.79-2.92,0-5.41,1.85-5.41,5.81s2.54,6.23,5.67,6.23a4.07,4.07,0,0,0,4-2.73.4.4,0,0,1,.5.08,7.16,7.16,0,0,1-.92,2.62,4,4,0,0,0-.67.19,11.24,11.24,0,0,1-3,.44,8.37,8.37,0,0,1-4.76-1.28,6.16,6.16,0,0,1-2.71-5.25A6.35,6.35,0,0,1,93.75,50.75Z"/><path class="cls-1" d="M112.42,58.2a3.9,3.9,0,0,1-4,4.11,3.78,3.78,0,0,1-3.92-3.94,4,4,0,0,1,4.07-4.13A3.82,3.82,0,0,1,112.42,58.2Zm-4.11-3.38c-1.26,0-2.2,1.2-2.2,3.31,0,1.74.78,3.61,2.46,3.61s2.2-1.76,2.2-3.23C110.78,56.88,110.13,54.82,108.31,54.82Z"/><path class="cls-1" d="M125.09,57.13c0-1.3-.57-2-1.78-2a2.06,2.06,0,0,0-1.59.67c-.23.29-.29.48-.29,1.15V59.9c0,1.38,0,1.57.73,1.66l.4.06a.33.33,0,0,1,0,.48c-.57,0-1.13-.06-1.8-.06s-1.2,0-1.74.06a.33.33,0,0,1,0-.48l.34-.06c.71-.11.73-.29.73-1.66V57.13c0-1.28-.57-2-1.76-2a2,2,0,0,0-1.6.69,1.49,1.49,0,0,0-.29,1.09v3c0,1.38,0,1.55.73,1.66l.34.06a.33.33,0,0,1,0,.48c-.52,0-1.07-.06-1.74-.06s-1.26,0-1.85.06a.33.33,0,0,1,0-.48l.46-.06c.71-.1.73-.29.73-1.66V56.56c0-.75,0-.84-.52-1.18l-.17-.12a.26.26,0,0,1,0-.34,10.39,10.39,0,0,0,1.91-.94.22.22,0,0,1,.21.13c0,.44,0,.73,0,.9a.2.2,0,0,0,.21.21,4.59,4.59,0,0,1,2.54-1,2.18,2.18,0,0,1,2,1.13.6.6,0,0,0,.48-.15,4.78,4.78,0,0,1,2.6-1,2.16,2.16,0,0,1,2.27,2.37V59.9c0,1.38,0,1.57.73,1.66l.46.06a.33.33,0,0,1,0,.48c-.63,0-1.18-.06-1.85-.06s-1.2,0-1.74.06a.33.33,0,0,1,0-.48l.34-.06c.71-.11.73-.29.73-1.66Z"/><path class="cls-1" d="M129.76,56.56c0-.75,0-.84-.52-1.18l-.17-.12a.26.26,0,0,1,0-.34,11.61,11.61,0,0,0,1.89-1,.22.22,0,0,1,.23.13,8.66,8.66,0,0,0-.08.88c0,.13,0,.25.17.25a6.07,6.07,0,0,1,2.67-.9,3.24,3.24,0,0,1,3.17,3.5,4.45,4.45,0,0,1-4.66,4.57,7.24,7.24,0,0,1-1.05-.08c-.17,0-.27.13-.27.53v2c0,1.36,0,1.53.73,1.62l.74.1a.33.33,0,0,1,0,.48c-.92,0-1.47-.06-2.14-.06s-1.26,0-1.8.06a.33.33,0,0,1,0-.48l.4-.06c.71-.09.73-.29.73-1.66Zm1.41,3.55a1.23,1.23,0,0,0,.57,1.15,2.52,2.52,0,0,0,1.38.42c1.57,0,2.48-1.45,2.48-3.44,0-1.53-.86-3.08-2.58-3.08a2.35,2.35,0,0,0-1.62.53c-.17.21-.23.5-.23,1.13Z"/><path class="cls-1" d="M140.3,57.15c-.5,0-.52,0-.52.52,0,1.93,1.13,3.57,3.17,3.57a2.06,2.06,0,0,0,1.76-.94.25.25,0,0,1,.34.23,3.34,3.34,0,0,1-3,1.78A3.42,3.42,0,0,1,139.29,61a4.06,4.06,0,0,1-.8-2.48c0-2.35,1.55-4.32,3.84-4.32A2.5,2.5,0,0,1,145,56.52a1.18,1.18,0,0,1-.08.5c-.06.11-.32.13-1.13.13Zm1.18-.57c1.41,0,1.83-.08,2-.19s.11-.12.11-.36c0-.54-.36-1.2-1.47-1.2A2.24,2.24,0,0,0,140,56.48s0,.1.13.1Z"/><path class="cls-1" d="M148.83,55.31c-.33,0-.34.06-.34.46v3.57c0,1.11.13,2.12,1.39,2.12a1.45,1.45,0,0,0,.52-.1c.17-.06.42-.27.48-.27s.23.21.19.33a2.64,2.64,0,0,1-2,.88c-1.64,0-2-.92-2-2.06V55.87c0-.52,0-.55-.4-.55h-.53a.32.32,0,0,1-.06-.4,3.8,3.8,0,0,0,1.22-.59,4.74,4.74,0,0,0,.8-1.13c.1,0,.32,0,.4.09v.86c0,.34,0,.36.34.36H151a.61.61,0,0,1,0,.8Z"/><path class="cls-1" d="M153.74,57.15c-.5,0-.52,0-.52.52,0,1.93,1.13,3.57,3.17,3.57a2.06,2.06,0,0,0,1.76-.94.25.25,0,0,1,.34.23,3.34,3.34,0,0,1-3,1.78A3.42,3.42,0,0,1,152.73,61a4.06,4.06,0,0,1-.8-2.48c0-2.35,1.55-4.32,3.84-4.32a2.5,2.5,0,0,1,2.71,2.27,1.18,1.18,0,0,1-.08.5c-.06.11-.32.13-1.13.13Zm1.18-.57c1.41,0,1.83-.08,2-.19s.11-.12.11-.36c0-.54-.36-1.2-1.47-1.2a2.24,2.24,0,0,0-2.12,1.66s0,.1.13.1Z"/><path class="cls-1" d="M160.69,56.56c0-.75,0-.84-.52-1.18l-.17-.12a.26.26,0,0,1,0-.34,10.39,10.39,0,0,0,1.91-.94.22.22,0,0,1,.21.13c0,.44,0,.73,0,.9a.2.2,0,0,0,.21.21,5.24,5.24,0,0,1,2.67-1,2.12,2.12,0,0,1,2.24,2.37V59.9c0,1.38,0,1.57.73,1.66l.42.06a.33.33,0,0,1,0,.48c-.57,0-1.13-.06-1.8-.06s-1.26,0-1.78.06a.33.33,0,0,1,0-.48l.36-.06c.71-.11.73-.29.73-1.66V57.05a1.66,1.66,0,0,0-1.8-1.89,2.08,2.08,0,0,0-1.62.67,1.61,1.61,0,0,0-.29,1.15V59.9c0,1.38,0,1.55.73,1.66l.34.06a.33.33,0,0,1,0,.48c-.52,0-1.07-.06-1.74-.06s-1.26,0-1.8.06a.33.33,0,0,1,0-.48l.4-.06c.71-.1.73-.29.73-1.66Z"/><path class="cls-1" d="M175.86,54.57a1.08,1.08,0,0,1,.29.76c0,.34-.19.71-.42.71a.33.33,0,0,1-.27-.13,2.61,2.61,0,0,0-1.91-1c-1.34,0-2.64,1.05-2.64,3.08A3.14,3.14,0,0,0,174,61.24a2.33,2.33,0,0,0,2.12-1.15.3.3,0,0,1,.34.27,3.48,3.48,0,0,1-3.19,1.95,3.7,3.7,0,0,1-2.62-1,3.8,3.8,0,0,1-1.11-2.83,4.25,4.25,0,0,1,4.62-4.26A4.76,4.76,0,0,1,175.86,54.57Z"/><path class="cls-1" d="M177,66a.71.71,0,0,1,.76-.76h.36a.69.69,0,0,0,.63-.34,12.16,12.16,0,0,0,1.11-2.12,2.91,2.91,0,0,0,.19-.82,3.64,3.64,0,0,0-.32-1.32l-1.49-4.09c-.32-.9-.46-1.36-1.13-1.49l-.48-.1c-.11-.1-.1-.42.06-.48.61,0,1.18.06,1.81.06s1.05,0,1.66-.06c.15.06.17.38,0,.48l-.48.1c-.27.06-.42.11-.42.25a14.44,14.44,0,0,0,.55,1.8l.61,1.76a10.72,10.72,0,0,0,.55,1.36,9.23,9.23,0,0,0,.71-1.41l.65-1.51a8.88,8.88,0,0,0,.67-1.91c0-.13-.11-.27-.46-.32l-.59-.1c-.13-.1-.11-.42,0-.48.61,0,1.18.06,1.68.06s.92,0,1.45-.06a.32.32,0,0,1,0,.48l-.32.06c-.63.12-1,.67-1.62,2l-1.07,2.2c-.63,1.28-2.2,4.6-3.13,6.69a1.27,1.27,0,0,1-1.22.9A.77.77,0,0,1,177,66Z"/><path class="cls-1" d="M186.91,61.58c0,1.51-1.15,2.37-2.48,2.77a.31.31,0,0,1-.11-.46c.59-.19,1.57-.67,1.57-1.66,0-.8-.92-1-1.09-1.11a.57.57,0,0,1-.32-.55.87.87,0,0,1,.94-.86A1.68,1.68,0,0,1,186.91,61.58Z"/><path class="cls-1" d="M195.24,51.91c0-1.34-.1-1.74-.9-1.85l-.42-.06a.29.29,0,0,1,0-.48c1.62-.1,3.17-.15,4.8-.15a12,12,0,0,1,4.2.57,5.73,5.73,0,0,1,3.88,5.64,6.27,6.27,0,0,1-3.34,5.69,9.24,9.24,0,0,1-4.28.92c-1.22,0-2.45-.15-3.11-.15s-1.49,0-2.39.06a.37.37,0,0,1,0-.48l.44-.06c1.11-.15,1.15-.38,1.15-2.39Zm1.57,6.82a3.54,3.54,0,0,0,.38,2.08c.42.59,1.15.78,2.35.78,3.71,0,5.37-2.43,5.37-6,0-2.1-1-5.66-6-5.66a4.26,4.26,0,0,0-1.89.27c-.15.12-.19.59-.19,1.45Z"/><path class="cls-1" d="M209.35,56.56c0-.75,0-.84-.52-1.18l-.17-.12a.26.26,0,0,1,0-.34,13.11,13.11,0,0,0,2-.94.18.18,0,0,1,.19.11c0,.67-.08,1.59-.08,2.37V59.9c0,1.38,0,1.57.73,1.66l.4.06a.33.33,0,0,1,0,.48c-.57,0-1.13-.06-1.8-.06s-1.26,0-1.8.06a.33.33,0,0,1,0-.48l.4-.06c.71-.1.73-.29.73-1.66Zm1.59-5.45a1,1,0,0,1-2,0,1,1,0,0,1,1-1A1,1,0,0,1,210.93,51.11Z"/><path class="cls-1" d="M215.48,59.9c0,1.38,0,1.57.73,1.66l.46.06a.33.33,0,0,1,0,.48c-.63,0-1.18-.06-1.85-.06s-1.26,0-1.83.06a.33.33,0,0,1,0-.48l.44-.06c.71-.1.73-.29.73-1.66V51.26c0-1.13,0-1.24-.59-1.59l-.19-.11a.29.29,0,0,1,0-.38,13.56,13.56,0,0,0,2.06-.8.21.21,0,0,1,.19.11c0,.57-.06,1.53-.06,2.37Z"/><path class="cls-1" d="M219,56.56c0-.75,0-.84-.52-1.18l-.17-.12a.26.26,0,0,1,0-.34,13.11,13.11,0,0,0,2-.94.18.18,0,0,1,.19.11c0,.67-.08,1.59-.08,2.37V59.9c0,1.38,0,1.57.73,1.66l.4.06a.33.33,0,0,1,0,.48c-.57,0-1.13-.06-1.8-.06s-1.26,0-1.8.06a.33.33,0,0,1,0-.48l.4-.06c.71-.1.73-.29.73-1.66Zm1.59-5.45a1,1,0,0,1-2,0,1,1,0,0,1,1-1A1,1,0,0,1,220.56,51.11Z"/><path class="cls-1" d="M230.54,54.93c.21.1.17.75-.11.78H229a8.32,8.32,0,0,1,0,1,2.94,2.94,0,0,1-3.21,3c-.34,0-.61,0-.84-.06-.23.13-.84.5-.84,1.05s.44.8,1.34.8c.65,0,1.43-.06,2.27-.06,1.07,0,2.67.19,2.67,2.1,0,2.08-2.27,3.61-4.76,3.61s-3.17-1.26-3.17-2.22a1.08,1.08,0,0,1,.21-.71c.33-.34.86-.84,1.3-1.28.17-.17.33-.34.15-.46A1.78,1.78,0,0,1,222.82,61c0-.1.08-.17.29-.33a5.94,5.94,0,0,0,1-.88.75.75,0,0,0,.19-.36,2.6,2.6,0,0,1-1.43-2.31A3,3,0,0,1,226,54.24a4.76,4.76,0,0,1,1.83.38,2.28,2.28,0,0,0,1.17.31Zm-4,7.72a4.22,4.22,0,0,0-1.64.21,2,2,0,0,0-.92,1.6c0,1,.82,1.89,2.56,1.89s2.83-1,2.83-2-.8-1.66-2.18-1.66Zm1.18-5.46c0-1.3-.54-2.39-1.7-2.39-.92,0-1.6.84-1.6,2.14s.82,2.24,1.74,2.24S227.73,58.35,227.73,57.19Z"/><path class="cls-1" d="M233,57.15c-.5,0-.52,0-.52.52,0,1.93,1.13,3.57,3.17,3.57a2.06,2.06,0,0,0,1.76-.94.25.25,0,0,1,.34.23,3.34,3.34,0,0,1-3,1.78A3.43,3.43,0,0,1,232,61a4.06,4.06,0,0,1-.8-2.48c0-2.35,1.55-4.32,3.84-4.32a2.5,2.5,0,0,1,2.71,2.27,1.18,1.18,0,0,1-.08.5c-.06.11-.32.13-1.13.13Zm1.18-.57c1.41,0,1.83-.08,2-.19s.11-.12.11-.36c0-.54-.36-1.2-1.47-1.2a2.24,2.24,0,0,0-2.12,1.66s0,.1.13.1Z"/><path class="cls-1" d="M240,56.56c0-.75,0-.84-.52-1.18l-.17-.12a.26.26,0,0,1,0-.34,10.43,10.43,0,0,0,1.91-.94.22.22,0,0,1,.21.13c0,.44,0,.73,0,.9a.2.2,0,0,0,.21.21,5.24,5.24,0,0,1,2.67-1,2.12,2.12,0,0,1,2.24,2.37V59.9c0,1.38,0,1.57.73,1.66l.42.06a.33.33,0,0,1,0,.48c-.57,0-1.13-.06-1.8-.06s-1.26,0-1.78.06a.33.33,0,0,1,0-.48l.36-.06c.71-.11.73-.29.73-1.66V57.05a1.66,1.66,0,0,0-1.8-1.89,2.08,2.08,0,0,0-1.62.67,1.61,1.61,0,0,0-.29,1.15V59.9c0,1.38,0,1.55.73,1.66l.34.06a.33.33,0,0,1,0,.48c-.52,0-1.07-.06-1.74-.06s-1.26,0-1.8.06a.33.33,0,0,1,0-.48l.4-.06c.71-.1.73-.29.73-1.66Z"/><path class="cls-1" d="M255.15,54.57a1.08,1.08,0,0,1,.29.76c0,.34-.19.71-.42.71a.33.33,0,0,1-.27-.13,2.61,2.61,0,0,0-1.91-1c-1.34,0-2.64,1.05-2.64,3.08a3.14,3.14,0,0,0,3.08,3.27,2.33,2.33,0,0,0,2.12-1.15.3.3,0,0,1,.34.27,3.48,3.48,0,0,1-3.19,1.95,3.7,3.7,0,0,1-2.62-1,3.8,3.8,0,0,1-1.11-2.83,4.25,4.25,0,0,1,4.62-4.26A4.76,4.76,0,0,1,255.15,54.57Z"/><path class="cls-1" d="M258.26,57.15c-.5,0-.52,0-.52.52,0,1.93,1.13,3.57,3.17,3.57a2.06,2.06,0,0,0,1.76-.94.25.25,0,0,1,.34.23,3.34,3.34,0,0,1-3,1.78A3.43,3.43,0,0,1,257.25,61a4.06,4.06,0,0,1-.8-2.48c0-2.35,1.55-4.32,3.84-4.32A2.5,2.5,0,0,1,263,56.52a1.16,1.16,0,0,1-.08.5c-.06.11-.32.13-1.13.13Zm1.18-.57c1.41,0,1.83-.08,2-.19s.12-.12.12-.36c0-.54-.36-1.2-1.47-1.2A2.24,2.24,0,0,0,258,56.48s0,.1.13.1Z"/><path class="cls-1" d="M267,61.58c0,1.51-1.15,2.37-2.48,2.77a.31.31,0,0,1-.12-.46c.59-.19,1.57-.67,1.57-1.66,0-.8-.92-1-1.09-1.11a.57.57,0,0,1-.33-.55.87.87,0,0,1,.94-.86A1.68,1.68,0,0,1,267,61.58Z"/><path class="cls-1" d="M275.35,52.29c0-2,0-2.31-1.24-2.41l-.48,0c-.11-.08-.08-.42,0-.48,1.07,0,1.72.06,2.48.06s1.39,0,2.35-.06c.11.06.15.4,0,.48l-.46,0c-1.13.1-1.17.4-1.17,2.41v6.65c0,1.2.06,1.7.4,2.06.21.21.57.44,2.08.44s2-.08,2.33-.25A4.08,4.08,0,0,0,283,59.31c.11-.1.48,0,.48.11a15.34,15.34,0,0,1-.8,2.67c-1,0-2.79-.06-4.76-.06h-1.76c-.8,0-1.41,0-2.48.06a.37.37,0,0,1,0-.48l.57-.06c1.11-.11,1.15-.38,1.15-2.39Z"/><path class="cls-1" d="M292.09,58.2a3.9,3.9,0,0,1-4,4.11,3.78,3.78,0,0,1-3.92-3.94,4,4,0,0,1,4.07-4.13A3.82,3.82,0,0,1,292.09,58.2ZM288,54.82c-1.26,0-2.2,1.2-2.2,3.31,0,1.74.78,3.61,2.46,3.61s2.2-1.76,2.2-3.23C290.44,56.88,289.79,54.82,288,54.82Z"/><path class="cls-1" d="M293,66a.71.71,0,0,1,.76-.76h.36a.69.69,0,0,0,.63-.34,12.13,12.13,0,0,0,1.11-2.12,2.89,2.89,0,0,0,.19-.82,3.64,3.64,0,0,0-.33-1.32l-1.49-4.09c-.33-.9-.46-1.36-1.13-1.49l-.48-.1c-.12-.1-.1-.42.06-.48.61,0,1.18.06,1.82.06s1.05,0,1.66-.06c.15.06.17.38,0,.48l-.48.1c-.27.06-.42.11-.42.25a14.35,14.35,0,0,0,.55,1.8l.61,1.76a10.72,10.72,0,0,0,.55,1.36,9.23,9.23,0,0,0,.71-1.41l.65-1.51a8.91,8.91,0,0,0,.67-1.91c0-.13-.12-.27-.46-.32l-.59-.1c-.13-.1-.11-.42,0-.48.61,0,1.18.06,1.68.06s.92,0,1.45-.06a.32.32,0,0,1,0,.48l-.32.06c-.63.12-1,.67-1.62,2l-1.07,2.2c-.63,1.28-2.2,4.6-3.13,6.69a1.27,1.27,0,0,1-1.22.9A.77.77,0,0,1,293,66Z"/><path class="cls-1" d="M305.43,58.08c.29-.1.33-.27.33-.55l0-.88c0-.71-.21-1.66-1.39-1.66-.53,0-1.18.27-1.22.86,0,.31,0,.54-.19.65a2.06,2.06,0,0,1-1.09.36.24.24,0,0,1-.27-.27c0-1,2.16-2.35,3.55-2.35s2,.8,2,2.24L307,59.8c0,.88.13,1.66.88,1.66a1.1,1.1,0,0,0,.48-.11c.1-.06.19-.13.25-.13s.13.11.13.25a2,2,0,0,1-1.61.84,1.52,1.52,0,0,1-1.24-.59c-.08-.11-.19-.27-.31-.27a2.93,2.93,0,0,0-.75.38,2.82,2.82,0,0,1-1.38.48,2,2,0,0,1-1.34-.44,1.79,1.79,0,0,1-.59-1.34c0-.75.36-1.18,1.58-1.62Zm-1.18,3.36a2.16,2.16,0,0,0,1.17-.48c.23-.23.23-.5.25-.9l0-1.13c0-.21-.08-.25-.19-.25a3.62,3.62,0,0,0-.78.19c-1.13.38-1.68.67-1.68,1.41A1.15,1.15,0,0,0,304.24,61.45Z"/><path class="cls-1" d="M311.71,59.9c0,1.38,0,1.57.73,1.66l.46.06a.33.33,0,0,1,0,.48c-.63,0-1.18-.06-1.85-.06s-1.26,0-1.83.06a.33.33,0,0,1,0-.48l.44-.06c.71-.1.73-.29.73-1.66V51.26c0-1.13,0-1.24-.59-1.59l-.19-.11a.29.29,0,0,1,0-.38,13.56,13.56,0,0,0,2.06-.8.21.21,0,0,1,.19.11c0,.57-.06,1.53-.06,2.37Z"/><path class="cls-1" d="M316.78,55.31c-.32,0-.34.06-.34.46v3.57c0,1.11.13,2.12,1.39,2.12a1.45,1.45,0,0,0,.52-.1c.17-.06.42-.27.48-.27s.23.21.19.33a2.64,2.64,0,0,1-2,.88c-1.64,0-2-.92-2-2.06V55.87c0-.52,0-.55-.4-.55h-.54a.32.32,0,0,1-.06-.4,3.78,3.78,0,0,0,1.22-.59,4.73,4.73,0,0,0,.8-1.13c.1,0,.32,0,.4.09v.86c0,.34,0,.36.34.36h2.12a.61.61,0,0,1,0,.8Z"/><path class="cls-1" d="M319.66,66a.71.71,0,0,1,.76-.76h.36a.69.69,0,0,0,.63-.34,12.13,12.13,0,0,0,1.11-2.12,2.89,2.89,0,0,0,.19-.82,3.64,3.64,0,0,0-.33-1.32l-1.49-4.09c-.33-.9-.46-1.36-1.13-1.49l-.48-.1c-.12-.1-.1-.42.06-.48.61,0,1.18.06,1.82.06s1.05,0,1.66-.06c.15.06.17.38,0,.48l-.48.1c-.27.06-.42.11-.42.25a14.35,14.35,0,0,0,.55,1.8l.61,1.76a10.72,10.72,0,0,0,.55,1.36,9.23,9.23,0,0,0,.71-1.41l.65-1.51a8.91,8.91,0,0,0,.67-1.91c0-.13-.12-.27-.46-.32l-.59-.1c-.13-.1-.11-.42,0-.48.61,0,1.18.06,1.68.06s.92,0,1.45-.06a.32.32,0,0,1,0,.48l-.32.06c-.63.12-1,.67-1.62,2l-1.07,2.2c-.63,1.28-2.2,4.6-3.13,6.69a1.27,1.27,0,0,1-1.22.9A.77.77,0,0,1,319.66,66Z"/></svg>