<svg id="Layer_1" data-name="Layer 1" xmlns="http://www.w3.org/2000/svg" viewBox="0 0 396 80.33"><defs><style>.cls-1,.cls-3,.cls-6{fill:#fff;}.cls-2{fill:#231f20;}.cls-3{font-size:34.4px;}.cls-3,.cls-6{font-family:AGaramondPro-Regular, Adobe Garamond Pro;}.cls-4{letter-spacing:-0.05em;}.cls-5{letter-spacing:-0.03em;}.cls-6{font-size:19.11px;}.cls-7{letter-spacing:-0.08em;}.cls-8{letter-spacing:-0.01em;}.cls-9{letter-spacing:-0.01em;}.cls-10{letter-spacing:0em;}</style></defs><title>Artboard 2</title><circle class="cls-1" cx="40.17" cy="40.17" r="40.17"/><path class="cls-2" d="M48.18,23.22c0-3.21.12-3.85-1.55-3.85l-.76-.06c-.18-.12-.12-.67.06-.76h7.73c.18.09.24.64.06.76l-.73.06c-1.8.15-1.51.59-1.51,3.85V33.86c0,2.31,0,2.85.57,3.43.34.34.63.57,3,.57,2.6,0,3.24-.12,3.73-.4a6.52,6.52,0,0,0,2-3c.18-.15.76,0,.76.18a24.51,24.51,0,0,1-1.28,4.28H45.92a.59.59,0,0,1-.06-.76l.92-.09c1.48-.12,1.4-.61,1.4-3.82Z"/><path class="cls-2" d="M51.26,50.07c0,.83,0,.83.72.83h2.08a11.52,11.52,0,0,0,2.6-.18c.34-.12.58-.28.76-1.07l.28-1.22a.64.64,0,0,1,.79,0c0,.73-.12,2-.12,3.09s.12,2.26.12,3c-.12.18-.58.18-.79,0l-.31-1.19a1.47,1.47,0,0,0-1-1.16A10.39,10.39,0,0,0,54.05,52H52c-.72,0-.72,0-.72.83V57c0,3.21-.23,3.67,1.58,3.82l1,.09c.18.12.12.67-.06.76H45.92a.59.59,0,0,1-.06-.76l.76-.09c1.55-.15,1.5-.8,1.5-4v-11c0-3.21.05-3.42-1.5-3.66l-.49-.06c-.18-.12-.12-.67.06-.76h13.3c0,1.41,0,2.87.09,4a.55.55,0,0,1-.73.09c-.24-1.38-.61-2.51-2.14-2.9a13.06,13.06,0,0,0-3-.18H51.88c-.66,0-.63.06-.63,1.22Z"/><path class="cls-2" d="M42.53,19.3a3.82,3.82,0,0,0-2.63-.68l-6.81,0H22.65c-.39.19-.52,1.36-.13,1.62l1,.13a6.2,6.2,0,0,1,1.74.26c1.75.73,1.54,2.48,1.54,7.73V51.78c0,5.81-.16,7.49-1.61,7.9a4.35,4.35,0,0,1-1,.22l-1.62.19a1.26,1.26,0,0,0,.13,1.62H36.38c.39-.19.52-1.36.13-1.62L35,59.93a4.48,4.48,0,0,1-1.16-.25c-1.49-.47-1.48-1.63-1.6-4.38,0-.55,0-1.18,0-1.87,0-1.26.27-1.45,1.66-1.47,1.63,0,2.78,0,3.51.08,1.38.08,4.78-.07,5.43-.9s.59-2.36.59-5.4,0-18.23,0-20.75S43.55,20.54,42.53,19.3Zm-4.8,25.62c0,2.32,0,3.86-.63,4.52-.33.33-1.28.24-2.41.24h-.36c-1.95,0-2.14,0-2.14-1.75V23.26c0-2.47,0-2.6,1.95-2.6a16.55,16.55,0,0,1,2.92.14c.64.21.69.85.69,2.58C37.72,30.19,37.72,44.27,37.72,44.92Z"/><text class="cls-3" transform="translate(90.5 40.49)">The <tspan class="cls-4" x="58.85" y="0">P</tspan><tspan x="75.88" y="0">etersen Law </tspan><tspan class="cls-5" x="240.71" y="0">F</tspan><tspan x="258.05" y="0">irm</tspan></text><text class="cls-6" transform="translate(90.5 62.04)">Competenc<tspan class="cls-7" x="85.99" y="0">y</tspan><tspan x="92.74" y="0">, </tspan><tspan class="cls-8" x="102.29" y="0">D</tspan><tspan x="116.97" y="0">iligence, L</tspan><tspan class="cls-9" x="192.97" y="0">o</tspan><tspan class="cls-10" x="202.02" y="0">yalty</tspan></text></svg>